<?xml version="1.0" standalone="no"?>
<!DOCTYPE svg PUBLIC "-//W3C//DTD SVG 20010904//EN"
 "http://www.w3.org/TR/2001/REC-SVG-20010904/DTD/svg10.dtd">
<svg version="1.0" xmlns="http://www.w3.org/2000/svg"
 width="500.000000pt" height="500.000000pt" viewBox="0 0 500.000000 500.000000"
 preserveAspectRatio="xMidYMid meet">

<g transform="translate(0.000000,500.000000) scale(0.100000,-0.100000)"
fill="#000000" stroke="none">
<path d="M2417 4490 c-141 -35 -230 -149 -229 -292 1 -164 127 -288 293 -288
116 0 207 57 260 165 29 60 31 70 27 142 -5 90 -27 139 -85 195 -68 66 -180
99 -266 78z m182 -103 c98 -65 129 -183 74 -287 -40 -75 -94 -112 -173 -118
-138 -10 -240 83 -240 218 0 90 46 164 125 202 60 28 159 21 214 -15z"/>
<path d="M3075 4370 c-184 -28 -256 -256 -122 -388 74 -72 164 -90 252 -48 89
42 136 114 136 210 0 145 -120 248 -266 226z m111 -86 c94 -45 113 -191 33
-258 -81 -68 -197 -46 -245 46 -21 40 -18 117 6 156 41 67 131 92 206 56z"/>
<path d="M1783 4339 c-107 -53 -154 -183 -108 -297 31 -77 128 -142 212 -142
89 0 190 76 219 163 37 110 -21 237 -128 281 -54 23 -144 20 -195 -5z m185
-69 c46 -28 72 -76 72 -133 0 -82 -42 -137 -121 -158 -43 -11 -50 -10 -95 12
-69 34 -89 67 -89 142 0 72 23 114 77 140 46 23 116 21 156 -3z"/>
<path d="M2913 3885 c-38 -16 -39 -21 -15 -53 16 -20 22 -22 46 -13 15 6 100
11 188 11 141 0 167 -3 202 -20 61 -30 86 -74 93 -164 l6 -76 -207 0 -207 0 3
-37 3 -38 239 -3 238 -2 -3 123 c-4 117 -6 126 -34 173 -19 30 -49 60 -79 79
l-49 30 -196 2 c-153 2 -203 0 -228 -12z"/>
<path d="M1633 3865 c-98 -49 -133 -123 -133 -281 l0 -104 238 2 237 3 3 38 3
37 -207 0 -207 0 5 74 c6 91 31 136 92 166 41 19 58 21 218 18 95 -2 180 -7
189 -11 12 -6 21 -1 34 19 16 24 16 28 1 43 -14 13 -48 16 -219 19 -200 3
-202 3 -254 -23z"/>
<path d="M2233 3856 c-84 -27 -162 -102 -194 -186 -15 -40 -19 -77 -19 -185
l0 -135 481 0 481 0 -4 148 c-3 129 -6 153 -26 194 -30 60 -90 120 -150 150
-45 22 -59 23 -287 25 -179 2 -251 -1 -282 -11z m537 -80 c50 -26 89 -65 112
-111 17 -32 21 -60 22 -140 l1 -100 -405 0 -405 0 -3 69 c-2 37 2 93 9 124 9
46 20 64 64 108 38 38 64 55 96 62 24 6 140 10 259 9 188 -2 219 -4 250 -21z"/>
<path d="M2342 2990 c-93 -42 -109 -184 -27 -248 42 -33 137 -31 170 3 21 20
25 34 25 85 l0 60 -55 0 c-52 0 -55 -1 -55 -25 0 -21 5 -25 30 -25 25 0 30 -4
30 -23 0 -13 -5 -28 -12 -35 -17 -17 -69 -15 -95 3 -44 31 -38 131 10 157 26
14 95 12 113 -3 12 -9 14 -6 14 20 0 25 -6 34 -26 41 -38 15 -74 12 -122 -10z"/>
<path d="M2677 3003 c-4 -3 -7 -69 -7 -145 l0 -138 30 0 c30 0 30 1 30 55 0
46 3 55 18 55 11 0 25 -19 41 -55 21 -48 27 -55 52 -55 16 0 29 2 29 4 0 2
-12 29 -26 60 l-25 56 20 26 c39 49 24 114 -30 133 -35 12 -122 15 -132 4z
m117 -56 c25 -18 17 -49 -17 -65 -36 -17 -47 -9 -47 39 0 34 3 39 23 39 13 0
31 -6 41 -13z"/>
<path d="M3090 2992 c-52 -26 -80 -74 -80 -139 0 -46 4 -58 33 -89 64 -70 180
-59 234 23 25 38 23 124 -3 160 -25 35 -79 63 -119 63 -16 0 -46 -8 -65 -18z
m100 -47 c55 -28 62 -137 10 -165 -30 -16 -75 -11 -104 11 -22 17 -26 28 -26
67 1 49 11 71 45 90 27 15 41 15 75 -3z"/>
<path d="M3840 2866 l0 -146 25 0 c23 0 25 4 25 40 0 38 2 40 30 40 19 0 42
11 62 29 29 26 33 35 32 76 -1 68 -34 97 -114 103 l-60 4 0 -146z m104 78 c25
-24 20 -71 -9 -90 -34 -22 -45 -11 -45 52 0 47 3 54 19 54 11 0 27 -7 35 -16z"/>
<path d="M980 2980 c0 -16 7 -20 35 -20 l35 0 0 -120 0 -120 30 0 29 0 3 118
3 117 33 0 c27 0 32 4 32 22 0 22 -3 23 -100 23 -93 0 -100 -1 -100 -20z"/>
<path d="M1330 2860 l0 -140 30 0 30 0 0 60 0 60 50 0 50 0 0 -60 c0 -57 1
-60 25 -60 l25 0 0 140 0 140 -25 0 c-24 0 -25 -3 -25 -55 l0 -55 -50 0 -50 0
0 55 c0 54 0 55 -30 55 l-30 0 0 -140z"/>
<path d="M1720 2860 l0 -140 80 0 c78 0 80 1 80 24 0 23 -4 25 -52 28 l-53 3
0 35 c0 33 2 35 38 38 32 3 37 7 37 28 0 21 -4 24 -40 24 -36 0 -40 3 -40 25
0 23 3 25 50 25 47 0 50 2 50 25 0 24 -2 25 -75 25 l-75 0 0 -140z"/>
<path d="M3452 2885 c3 -100 6 -117 24 -135 43 -43 131 -42 170 1 16 18 20 40
22 135 l4 114 -31 0 -31 0 0 -103 c0 -111 -6 -127 -50 -127 -44 0 -50 16 -50
127 l0 103 -31 0 -31 0 4 -115z"/>
<path d="M550 2266 l0 -146 30 0 c30 0 30 1 30 55 0 43 3 55 16 55 9 0 25 -22
39 -55 22 -49 28 -55 55 -55 16 0 30 2 30 5 0 2 -12 29 -27 59 l-26 54 21 27
c28 36 28 77 -1 111 -20 23 -33 27 -95 32 l-72 5 0 -147z m124 78 c9 -8 16
-19 16 -23 0 -17 -27 -41 -50 -43 -23 -3 -25 1 -28 40 -3 39 -1 42 22 42 13 0
32 -7 40 -16z"/>
<path d="M978 2403 l-78 -4 0 -139 0 -140 80 0 c44 0 80 4 80 9 0 5 3 16 6 25
5 13 -3 16 -50 16 l-56 0 0 40 0 40 40 0 c36 0 40 3 40 25 0 23 -4 25 -40 25
-36 0 -40 3 -40 25 0 23 3 25 50 25 49 0 50 1 50 30 0 17 -1 29 -2 28 -2 -1
-38 -4 -80 -5z"/>
<path d="M1295 2403 c-61 -16 -95 -67 -95 -144 0 -91 50 -142 139 -141 57 1
81 17 81 53 0 29 -1 30 -22 15 -31 -22 -80 -20 -112 5 -21 17 -26 29 -26 65 0
25 4 54 10 64 15 27 68 42 110 30 19 -6 36 -10 37 -10 2 0 3 11 3 25 0 39 -55
55 -125 38z"/>
<path d="M1640 2392 c-52 -26 -80 -74 -80 -139 0 -46 4 -58 33 -89 64 -70 180
-59 234 23 25 38 23 124 -3 160 -25 35 -79 63 -119 63 -16 0 -46 -8 -65 -18z
m100 -47 c55 -28 62 -137 10 -165 -30 -16 -75 -11 -104 11 -22 17 -26 28 -26
67 1 49 11 71 45 90 27 15 41 15 75 -3z"/>
<path d="M2928 2403 l-78 -4 0 -139 0 -140 80 0 c44 0 80 4 80 9 0 5 3 16 6
25 5 13 -3 16 -50 16 l-56 0 0 40 0 40 40 0 c36 0 40 3 40 25 0 23 -4 25 -40
25 -36 0 -40 3 -40 25 0 23 3 25 50 25 49 0 50 1 50 30 0 17 -1 29 -2 28 -2
-1 -38 -4 -80 -5z"/>
<path d="M3570 2266 l0 -146 63 0 c75 0 121 24 143 75 30 72 8 152 -51 191
-14 9 -54 19 -90 22 l-65 5 0 -147z m138 58 c41 -47 23 -133 -34 -154 -47 -18
-54 -6 -54 97 l0 96 33 -7 c17 -3 42 -17 55 -32z"/>
<path d="M4270 2266 l0 -146 30 0 c30 0 30 1 30 55 0 43 3 55 16 55 9 0 25
-22 39 -55 22 -49 28 -55 55 -55 16 0 30 2 30 5 0 2 -12 29 -27 59 l-26 54 21
27 c28 36 28 77 -1 111 -20 23 -33 27 -95 32 l-72 5 0 -147z m124 78 c9 -8 16
-19 16 -23 0 -17 -27 -41 -50 -43 -23 -3 -25 1 -28 40 -3 39 -1 42 22 42 13 0
32 -7 40 -16z"/>
<path d="M2000 2260 l0 -140 30 0 30 0 0 88 0 87 31 -52 c17 -29 32 -53 34
-53 2 0 18 26 37 58 l33 57 3 -92 c3 -91 3 -93 27 -93 l25 0 0 140 0 140 -29
0 c-25 0 -34 -8 -61 -55 -17 -30 -33 -55 -36 -55 -2 0 -18 25 -35 55 -26 47
-35 55 -60 55 l-29 0 0 -140z"/>
<path d="M2430 2260 l0 -140 25 0 c24 0 24 2 27 88 l3 87 33 -52 c19 -29 36
-53 38 -53 2 0 16 24 31 53 l28 52 3 -87 3 -88 29 0 30 0 0 141 0 140 -32 -3
c-27 -2 -37 -11 -62 -55 -16 -29 -33 -50 -37 -47 -5 3 -21 27 -36 54 -23 41
-33 50 -55 50 l-28 0 0 -140z"/>
<path d="M3170 2261 l0 -141 30 0 29 0 3 82 3 83 52 -83 c37 -57 59 -82 72
-82 19 0 20 8 23 140 l3 140 -27 0 -28 0 0 -87 0 -87 -54 85 c-42 66 -59 85
-80 87 l-26 3 0 -140z"/>
<path d="M3950 2260 l0 -140 80 0 c79 0 80 0 80 25 0 23 -3 25 -50 25 l-50 0
0 40 0 40 40 0 c36 0 40 3 40 25 0 23 -4 25 -40 25 -36 0 -40 3 -40 25 0 23 3
25 50 25 47 0 50 2 50 25 0 25 -1 25 -80 25 l-80 0 0 -140z"/>
<path d="M1394 1790 c-42 -17 -65 -71 -48 -115 8 -20 48 -40 97 -49 21 -4 41
-14 44 -22 17 -44 -81 -62 -124 -22 l-23 21 0 -36 c0 -49 27 -62 122 -58 42 2
80 40 81 83 1 46 -24 76 -72 84 -49 8 -82 30 -75 49 9 23 47 28 88 11 l36 -15
0 30 c0 22 -6 32 -26 39 -30 12 -71 12 -100 0z"/>
<path d="M2095 1788 c-32 -17 -45 -39 -45 -79 0 -42 35 -79 74 -79 57 -1 89
-28 65 -56 -15 -19 -89 -18 -117 2 -21 15 -22 14 -22 -20 0 -33 2 -35 43 -44
102 -20 181 43 151 123 -8 20 -48 40 -97 49 -42 8 -56 28 -37 51 16 19 47 19
83 1 27 -15 27 -14 27 15 0 22 -6 32 -26 39 -33 13 -74 12 -99 -2z"/>
<path d="M2478 1793 c-94 -4 -98 -5 -98 -26 0 -20 4 -23 35 -19 l35 4 0 -121
0 -121 30 0 29 0 3 118 3 117 33 0 c28 0 32 3 32 27 0 16 -1 27 -2 26 -2 -1
-47 -4 -100 -5z"/>
<path d="M2803 1793 l-73 -4 0 -139 0 -140 80 0 c79 0 80 0 80 25 0 24 -3 25
-55 25 l-55 0 0 40 0 40 40 0 c36 0 40 3 40 25 0 23 -4 25 -40 25 -36 0 -40 3
-40 25 0 23 3 25 50 25 49 0 50 1 50 30 0 17 -1 29 -2 28 -2 -1 -36 -4 -75 -5z"/>
<path d="M3515 1790 c-29 -11 -44 -32 -51 -68 -5 -26 -1 -36 24 -62 20 -19 41
-30 59 -30 38 0 66 -21 62 -46 -5 -26 -80 -32 -114 -10 -33 21 -35 21 -35 -14
0 -42 31 -55 123 -51 37 1 87 51 87 86 0 35 -50 85 -85 85 -37 0 -65 17 -65
40 0 28 44 37 86 17 l34 -17 0 30 c0 24 -6 33 -26 40 -30 12 -71 12 -99 0z"/>
<path d="M1716 1708 c36 -70 43 -92 44 -140 0 -58 0 -58 30 -58 29 0 30 2 30
46 0 41 22 98 88 227 2 4 -10 7 -28 7 -28 0 -34 -5 -56 -55 -14 -30 -27 -55
-30 -55 -2 0 -15 25 -29 55 -22 51 -26 55 -58 55 l-34 0 43 -82z"/>
<path d="M3050 1651 l0 -141 25 0 c24 0 24 2 27 88 l3 87 34 -54 33 -55 34 60
34 59 0 -92 0 -93 30 0 30 0 0 140 0 140 -32 0 c-30 0 -36 -6 -63 -55 -16 -30
-32 -55 -35 -55 -3 0 -19 24 -35 53 -24 40 -37 53 -58 55 l-27 3 0 -140z"/>
<path d="M995 1193 c-61 -16 -95 -67 -95 -144 0 -91 50 -142 139 -141 57 1 81
17 81 53 0 29 -1 30 -22 15 -31 -22 -80 -20 -112 5 -21 17 -26 29 -26 65 0 25
4 54 10 64 15 27 68 42 110 30 19 -6 36 -10 37 -10 2 0 3 11 3 25 0 39 -55 55
-125 38z"/>
<path d="M1340 1182 c-52 -26 -80 -74 -80 -139 0 -46 4 -58 33 -89 64 -70 180
-59 234 23 25 38 23 124 -3 160 -25 35 -79 63 -119 63 -16 0 -46 -8 -65 -18z
m100 -47 c55 -28 62 -137 10 -165 -30 -16 -75 -11 -104 11 -22 17 -26 28 -26
67 1 49 11 71 45 90 27 15 41 15 75 -3z"/>
<path d="M3648 1193 c-94 -4 -98 -5 -98 -26 0 -20 4 -23 35 -19 l35 4 0 -121
0 -121 30 0 29 0 3 118 3 117 33 0 c28 0 32 3 32 27 0 16 -1 27 -2 26 -2 -1
-47 -4 -100 -5z"/>
<path d="M1700 1050 l0 -140 30 0 30 0 0 88 0 87 34 -53 c36 -59 37 -59 77 18
l24 45 3 -92 3 -93 29 0 30 0 0 140 0 140 -33 0 c-30 0 -37 -5 -61 -50 -15
-27 -31 -52 -36 -55 -4 -3 -22 20 -39 50 -27 47 -35 55 -61 55 l-30 0 0 -140z"/>
<path d="M2130 1050 l0 -140 25 0 c24 0 24 2 27 88 l3 87 33 -52 c19 -29 36
-53 38 -53 2 0 16 24 31 53 l28 52 3 -87 3 -88 29 0 30 0 0 141 0 140 -32 -3
c-27 -2 -37 -11 -62 -55 -16 -29 -33 -50 -37 -47 -5 3 -21 27 -36 54 -23 41
-33 50 -55 50 l-28 0 0 -140z"/>
<path d="M2550 1095 c0 -148 23 -185 115 -185 38 0 52 5 76 29 29 29 29 31 29
140 l0 111 -25 0 c-25 0 -25 -1 -25 -87 0 -104 -13 -137 -55 -141 -45 -6 -55
17 -55 130 l0 98 -30 0 -30 0 0 -95z"/>
<path d="M2950 1050 l0 -140 25 0 c24 0 24 2 27 83 l3 82 55 -82 c41 -62 61
-83 78 -83 22 0 22 1 22 140 l0 140 -25 0 c-25 0 -25 -1 -25 -80 0 -44 -3 -80
-7 -80 -5 0 -30 36 -58 80 -38 62 -55 80 -72 80 -23 0 -23 -1 -23 -140z"/>
<path d="M3340 1050 l0 -140 30 0 30 0 0 140 0 140 -30 0 -30 0 0 -140z"/>
<path d="M3872 1183 c2 -5 22 -45 46 -90 33 -65 42 -93 42 -133 0 -49 1 -50
30 -50 30 0 30 1 30 54 0 44 8 70 43 140 l43 86 -32 0 c-29 0 -34 -5 -55 -55
-13 -30 -27 -55 -30 -55 -4 0 -17 25 -29 55 -21 52 -24 55 -57 55 -19 0 -33
-3 -31 -7z"/>
</g>
</svg>
